<mxfile host="app.diagrams.net" modified="2023-03-23T05:06:35.490Z" agent="5.0 (Windows NT 10.0; Win64; x64) AppleWebKit/537.36 (KHTML, like Gecko) Chrome/111.0.0.0 Safari/537.36 Edg/111.0.1661.44" etag="Bx0ybu1_jKTPL3O5922B" version="21.0.10" type="github">
  <diagram name="Page-1" id="MxF4TKuAIOIYdMwMhrES">
    <mxGraphModel dx="880" dy="484" grid="1" gridSize="10" guides="1" tooltips="1" connect="1" arrows="1" fold="1" page="1" pageScale="1" pageWidth="850" pageHeight="1100" math="0" shadow="0">
      <root>
        <mxCell id="0" />
        <mxCell id="1" parent="0" />
        <mxCell id="C1gUHuXlM54VYYlhLwQY-1" value="Shopping&lt;span style=&quot;white-space: pre;&quot;&gt;	&lt;/span&gt;" style="rounded=0;whiteSpace=wrap;html=1;" vertex="1" parent="1">
          <mxGeometry x="270" y="110" width="220" height="60" as="geometry" />
        </mxCell>
        <mxCell id="C1gUHuXlM54VYYlhLwQY-2" value="Product" style="rounded=0;whiteSpace=wrap;html=1;" vertex="1" parent="1">
          <mxGeometry x="425" y="220" width="260" height="60" as="geometry" />
        </mxCell>
        <mxCell id="C1gUHuXlM54VYYlhLwQY-3" value="Cart" style="rounded=0;whiteSpace=wrap;html=1;" vertex="1" parent="1">
          <mxGeometry x="425" y="300" width="260" height="60" as="geometry" />
        </mxCell>
        <mxCell id="C1gUHuXlM54VYYlhLwQY-5" value="" style="endArrow=classic;html=1;rounded=0;exitX=0.5;exitY=1;exitDx=0;exitDy=0;" edge="1" parent="1" source="C1gUHuXlM54VYYlhLwQY-1">
          <mxGeometry width="50" height="50" relative="1" as="geometry">
            <mxPoint x="400" y="280" as="sourcePoint" />
            <mxPoint x="380" y="430" as="targetPoint" />
          </mxGeometry>
        </mxCell>
        <mxCell id="C1gUHuXlM54VYYlhLwQY-6" value="" style="endArrow=classic;html=1;rounded=0;" edge="1" parent="1" target="C1gUHuXlM54VYYlhLwQY-2">
          <mxGeometry width="50" height="50" relative="1" as="geometry">
            <mxPoint x="380" y="250" as="sourcePoint" />
            <mxPoint x="450" y="230" as="targetPoint" />
          </mxGeometry>
        </mxCell>
        <mxCell id="C1gUHuXlM54VYYlhLwQY-7" value="" style="endArrow=classic;html=1;rounded=0;entryX=0;entryY=0.5;entryDx=0;entryDy=0;" edge="1" parent="1" target="C1gUHuXlM54VYYlhLwQY-3">
          <mxGeometry width="50" height="50" relative="1" as="geometry">
            <mxPoint x="380" y="330" as="sourcePoint" />
            <mxPoint x="435" y="260" as="targetPoint" />
          </mxGeometry>
        </mxCell>
      </root>
    </mxGraphModel>
  </diagram>
</mxfile>
